<?xml version="1.0" encoding="UTF-8"?>
<svg width="140px" height="44px" viewBox="0 0 140 44" version="1.1" xmlns="http://www.w3.org/2000/svg" xmlns:xlink="http://www.w3.org/1999/xlink">
    <title>Coinhub-</title>
    <g id="页面-1" stroke="none" stroke-width="1" fill="none" fill-rule="evenodd">
        <g id="画板备份-5" transform="translate(-163.000000, -100.000000)" fill-rule="nonzero">
            <g id="Coinhub-" transform="translate(163.000000, 100.000000)">
                <path d="M62.7401587,16.0048603 C63.6941905,16.0019968 64.645254,16.1129397 65.5729206,16.3353317 C66.6029048,16.5944254 67.6005873,16.9681635 68.5472857,17.4495444 L68.5472857,20.527746 C67.6356825,19.9897937 66.6664603,19.5559048 65.6579524,19.2341111 C64.7590952,18.964 63.8251429,18.8286825 62.8866508,18.832873 C61.754873,18.8141905 60.6354921,19.0701587 59.6241905,19.5787778 C58.6843016,20.0474127 57.8991111,20.7767302 57.3627302,21.6797778 C56.835254,22.6029048 56.5578095,23.6475556 56.5578095,24.7107143 C56.5578095,25.773873 56.835254,26.8186984 57.3627302,27.7418254 C57.8949206,28.6399841 58.6776667,29.3635397 59.6147619,29.8237937 C60.6335714,30.3238571 61.756619,30.5747619 62.8913651,30.5557302 C63.7938889,30.559746 64.691873,30.426 65.5540635,30.1590317 C66.6586032,29.7728095 67.7266508,29.2893333 68.7456349,28.7143651 L68.7456349,31.792619 C67.7833968,32.3117143 66.7668571,32.7234286 65.7145238,33.0200794 C64.6593968,33.2772698 63.5759841,33.3994921 62.4899524,33.3836032 C60.8275556,33.4134603 59.1819206,33.0478413 57.6885397,32.3166032 C56.3156349,31.6293651 55.1686667,30.5627143 54.3836508,29.2432381 C53.5850159,27.9169524 53.1682381,26.3958095 53.1797619,24.8477778 C53.1540952,23.2286825 53.5843175,21.635254 54.4215397,20.249254 C55.2413016,18.9007937 56.4265079,17.8121429 57.8395714,17.109627 C59.3621111,16.3571048 61.0421429,15.978373 62.7401587,16.0048603 Z" id="路径" fill="#FFFFFF"></path>
                <path d="M76.4740952,21.6184921 C77.5898095,21.6050476 78.692254,21.8590952 79.6892381,22.3596825 C80.6165556,22.8229048 81.391619,23.5420952 81.9224127,24.4323968 C82.455127,25.3508095 82.7276825,26.3970317 82.7109206,27.458619 C82.7344921,28.5338254 82.4720635,29.5961111 81.950873,30.536873 C81.4267143,31.4360794 80.650254,32.1615556 79.7176984,32.6235556 C78.7147778,33.1386349 77.6015079,33.4010635 76.4740952,33.3884921 C75.3496508,33.4031587 74.2388254,33.1405556 73.2400952,32.6235556 C72.3146984,32.1584127 71.5450476,31.4331111 71.0259524,30.536873 C70.5045873,29.5961111 70.2421587,28.5338254 70.2657302,27.458619 C70.2470476,26.3903968 70.5248413,25.3378889 71.068381,24.4180794 C71.6005714,23.5342381 72.3735397,22.8201111 73.2968413,22.3596825 C74.2809048,21.8606667 75.3707778,21.6064444 76.4740952,21.6184921 Z M73.3960159,27.458619 C73.3459048,28.4315079 73.6401111,29.3909524 74.2267778,30.1686349 C74.4933968,30.4984603 74.8331746,30.7615873 75.2192222,30.9368889 C75.6052698,31.1123651 76.0267619,31.1953016 76.4505238,31.1788889 C76.8812698,31.2007143 77.3111429,31.1249365 77.7083651,30.9573175 C78.1057619,30.7896984 78.4600317,30.5346032 78.7451587,30.2110635 C79.3498095,29.4171429 79.6466349,28.4309841 79.5808095,27.4350476 C79.6415714,26.4729841 79.3402063,25.5231429 78.7355556,24.7721746 C78.4474603,24.4566667 78.0933651,24.208381 77.6984127,24.045127 C77.3034603,23.8820476 76.8774286,23.8078413 76.4505238,23.8280952 C76.0314762,23.815873 75.6152222,23.8991587 75.2331905,24.0718413 C74.8513333,24.2443492 74.5136508,24.5017143 74.2458095,24.8242063 C73.6502381,25.5690635 73.348,26.5061587 73.3960159,27.458619 L73.3960159,27.458619 Z" id="形状" fill="#FFFFFF"></path>
                <path d="M96.5772063,21.6184921 C97.1186508,21.5977143 97.658,21.693746 98.1589365,21.8997778 C98.6600476,22.1058095 99.110873,22.4173016 99.4808571,22.8129524 C100.231476,23.685619 100.619968,24.8121587 100.566714,25.9620952 L100.566714,33.1665714 L97.5923492,33.1665714 L97.5923492,26.2641587 C97.626746,25.6385556 97.4413175,25.0206349 97.0681905,24.5174286 C96.8939365,24.3066825 96.6732381,24.1390635 96.4235556,24.0276667 C96.1736984,23.9162698 95.9014921,23.8640635 95.6282381,23.8752381 C95.1646667,23.8775079 94.7122698,24.0189365 94.3298889,24.2813651 C93.8196984,24.6623492 93.370619,25.1192857 92.9985397,25.6362857 L92.9985397,33.1903175 L90.014746,33.1903175 L90.014746,21.8592698 L92.9985397,21.8592698 L92.9985397,23.4457143 C93.4593175,22.8703968 94.0349841,22.397746 94.6886984,22.057619 C95.2767619,21.7695238 95.922619,21.6193651 96.5772063,21.6184921 L96.5772063,21.6184921 Z" id="路径" fill="#FFFFFF"></path>
                <path d="M105.811794,16.2268333 L105.811794,23.4266825 L105.887397,23.4266825 C106.283571,22.8721429 106.80546,22.4192222 107.410111,22.1051111 C108.014937,21.7908254 108.685413,21.6240794 109.366889,21.6184921 C109.908683,21.5964921 110.448905,21.6913016 110.950714,21.8966349 C111.452524,22.1017937 111.904222,22.4127619 112.275254,22.8082381 C113.033905,23.6603016 113.430254,24.7749683 113.379968,25.9147778 L113.379968,33.1665714 L110.410317,33.1665714 L110.410317,26.4813651 C110.442619,25.8327143 110.250905,25.192619 109.867476,24.6684603 C109.692,24.4484603 109.467286,24.2731587 109.211317,24.1565238 C108.955349,24.0400635 108.675286,23.9857619 108.394349,23.9979841 C107.938984,23.9979841 107.493921,24.1327778 107.114857,24.3850794 C106.616016,24.7423175 106.176365,25.1756825 105.811794,25.6692857 L105.811794,33.1665714 L102.828,33.1665714 L102.828,16.2268333 L105.811794,16.2268333 Z" id="路径" fill="#FFFFFF"></path>
                <path d="M118.516794,21.8402381 L118.516794,28.8465397 C118.471746,29.4569524 118.668349,30.0607302 119.064349,30.5274444 C119.254492,30.720381 119.482873,30.8714127 119.735,30.9707619 C119.987127,31.0699365 120.257238,31.1151587 120.528048,31.1032857 C121.044698,31.095254 121.546857,30.9306032 121.968,30.6311587 C122.448683,30.3043016 122.834556,29.856619 123.086857,29.3328095 L123.086857,21.8402381 L126.065937,21.8402381 L126.065937,33.1712857 L123.086857,33.1712857 L123.086857,31.6274444 C122.010429,32.804619 120.845825,33.391556 119.593222,33.3884921 C119.047238,33.4103175 118.503,33.3153333 117.996651,33.1101746 C117.490127,32.9050159 117.033365,32.5943968 116.656571,32.198746 C115.893905,31.3501746 115.493889,30.2367302 115.542429,29.096746 L115.542429,21.8402381 L118.516794,21.8402381 Z" id="路径" fill="#FFFFFF"></path>
                <path d="M86.1746984,16.5873016 C86.6209841,16.589781 87.0482381,16.7681556 87.363746,17.0837159 C87.679254,17.3992587 87.8576984,17.8264603 87.8601429,18.272746 C87.8632857,18.4916984 87.8233016,18.7090794 87.7422857,18.9123175 C87.6612698,19.1157302 87.5409683,19.3011587 87.3880159,19.4577778 C87.2364603,19.6229524 87.0515556,19.7540794 86.8456984,19.8427778 C86.6398413,19.9314762 86.417746,19.9756508 86.1935556,19.9723333 C85.9719841,19.9721587 85.7528571,19.9264127 85.5497937,19.8378889 C85.3469048,19.7493651 85.1640952,19.6199841 85.0132381,19.4577778 C84.8541746,19.3039524 84.7275873,19.1199206 84.6408095,18.9163333 C84.5540317,18.7129206 84.5089841,18.4939683 84.5081111,18.272746 C84.5051429,18.0490794 84.5489683,17.8273333 84.6367937,17.6216508 C84.724619,17.4159857 84.8545238,17.2308889 85.0179524,17.0783032 C85.3238571,16.7686968 85.7394127,16.5922603 86.1746984,16.5873016 Z M87.6665079,21.8278413 L87.6665079,33.1587143 L84.711,33.1587143 L84.711,21.8278413 L87.6665079,21.8278413 Z" id="形状" fill="#FFFFFF"></path>
                <path d="M131.415079,16.2268333 L131.415079,22.5674603 C132.287571,21.9401111 133.338333,21.6090635 134.413016,21.6232063 C135.367222,21.6127302 136.305365,21.8676508 137.123032,22.3596825 C137.93546,22.8522381 138.590571,23.5663651 139.01154,24.4180794 C139.467079,25.3392857 139.696857,26.3554762 139.681841,27.3830159 C139.681841,29.2432381 139.128,30.7083333 138.019968,31.7784762 C136.912111,32.848619 135.396556,33.3853492 133.473476,33.3885396 C131.748397,33.3930317 130.03781,33.0726349 128.431286,32.4442381 L128.431286,16.2268333 L131.415079,16.2268333 Z M131.415079,30.8012222 C132.136714,31.0306508 132.891,31.1406508 133.648079,31.1270317 C134.064159,31.1429206 134.477968,31.0605079 134.855984,30.8866032 C135.234175,30.712873 135.566095,30.4521905 135.824683,30.1260317 C136.405238,29.3230317 136.69054,28.3440317 136.632048,27.3547302 C136.678841,26.4345714 136.390222,25.5287302 135.819968,24.8053492 C135.557016,24.4950794 135.227016,24.2488889 134.854762,24.0852857 C134.482683,23.9216825 134.077952,23.8450317 133.671825,23.8610952 C133.280365,23.8558571 132.892397,23.9347778 132.533937,24.0924444 C132.130778,24.2789206 131.754508,24.5186508 131.415079,24.8053492 L131.415079,30.8012222 Z" id="形状" fill="#FFFFFF"></path>
                <path d="M65.3936032,30.1970952 L65.3936032,33.0911429 L65.7099841,33.020254 C66.7621429,32.7236032 67.7786825,32.3118889 68.7409206,31.7927937 L68.7409206,28.7145397 C67.7219365,29.2895079 66.6538889,29.7729841 65.5493492,30.1592063 L65.3936032,30.1970952 Z" id="路径" fill="#22A079"></path>
                <path d="M27.7559683,19.2908571 C27.7559683,19.2908571 30.0645714,26.7032857 39.0868413,27.7323968 C40.5788254,27.9024603 42.2689841,28.0864921 43.9968571,27.5766508 C44.0705397,27.5811905 44.1424762,27.601619 44.2074286,27.6363651 C44.2725556,27.6711111 44.3294762,27.7193016 44.3743492,27.7779683 C44.4190476,27.8366349 44.4506508,27.904381 44.4670635,27.9763175 C44.4834762,28.048254 44.484,28.1228095 44.4689841,28.1950952 C44.2149365,29.9290794 43.6401429,31.6005556 42.7741111,33.1241429 C40.5835397,37.0190159 35.7725238,42.1699841 24.9090635,43.9828889 C24.3330476,43.9828889 23.1951587,43.4777619 22.6664603,43.5675079 C22.6664603,43.5579048 9.56507619,32.0618571 27.7559683,19.2908571 Z" id="路径" fill="#CFBFA3"></path>
                <path d="M24.9088889,43.9828889 C24.9088889,43.9828889 15.4192762,30.414127 30.3194921,23.4643968 L28.4639841,21.0471905 C28.4639841,21.0471905 9.16837778,30.8956825 24.9088889,43.9828889 Z" id="路径" fill="#B9A798"></path>
                <path d="M44.4691587,28.214127 C44.1746032,30.028254 43.5523175,31.7735873 42.6326825,33.3649206 L39.8753492,27.8174286 C41.1529206,27.9874921 42.4505714,27.9218413 43.7043968,27.6239683 C44.3039841,27.4870794 44.563619,27.685254 44.4691587,28.214127 Z" id="路径" fill="#8C6742"></path>
                <path d="M28.6387619,32.0051111 C29.7,32.0051111 30.5602698,31.1448413 30.5602698,30.0836032 C30.5602698,29.0223651 29.7,28.1620952 28.6387619,28.1620952 C27.5775238,28.1620952 26.717254,29.0223651 26.717254,30.0836032 C26.717254,31.1448413 27.5775238,32.0051111 28.6387619,32.0051111 Z" id="路径" fill="#222222"></path>
                <path d="M29.0024603,3.22932063 L30.5981587,0.604315556 C27.9075238,1.05145159 25.2755556,1.79893651 22.7514921,2.83272698 C22.0892222,2.89495556 21.430619,2.9910746 20.778127,3.12071746 L23.9744127,0 C20.8149683,0.773114921 17.9540952,2.46143333 15.7499921,4.85340952 C15.4242175,5.01393968 15.1031746,5.18863016 14.8057381,5.37274921 L17.3127079,0.755397937 C13.9119968,2.58915556 11.2450032,5.53619524 9.75876349,9.10251746 L11.307319,3.72032222 C11.307319,3.72032222 7.39343175,6.68525873 6.69941905,13.9984254 C6.60970794,14.1778302 6.51999683,14.3572349 6.43501746,14.541354 L6.01012063,7.98830476 C6.01012063,7.98830476 2.20481905,14.0550667 4.65039841,20.9150159 L1.9923619,14.3052905 C1.9923619,14.3052905 0.344649206,19.4986349 4.3529619,26.2311587 L0,21.1887937 C0,21.1887937 0.420187778,29.8899683 5.39635556,34.5970952 C5.39635556,34.5970952 7.18568889,34.0636825 8.28574127,35.3288571 C10.0380937,37.8775397 12.3573302,39.9853492 15.0613746,41.4869365 C17.7653492,42.9883492 20.780746,43.8428571 23.8705238,43.9828889 C24.1301587,43.9828889 24.6494286,43.9828889 24.6494286,43.9828889 C24.6494286,43.9828889 15.4147714,36.0087619 24.3141905,24.6258571 C33.2184286,14.1494921 44.7240794,21.4342857 44.6154762,20.494746 C44.077873,16.3705667 42.2953492,12.5083444 39.5057143,9.42347302 C36.7160794,6.33860159 33.0520317,4.17778254 29.0024603,3.22932063 L29.0024603,3.22932063 Z" id="路径" fill="#22A079"></path>
                <path d="M20.7590952,37.2409365 C20.7590952,37.2409365 10.565954,40.7960317 1.09519143,27.0289206 C2.11112698,30.6411111 3.93002063,33.9770794 6.41600317,36.7876667 C9.87665556,40.767746 16.7507651,44.2236667 24.9090635,43.9734603 C23.9234286,43.2120159 23.1013968,42.2599048 22.4916825,41.1736984 C21.7875079,39.9223175 21.207127,38.6052857 20.7590952,37.2409365 L20.7590952,37.2409365 Z" id="路径" fill="#1B8061"></path>
            </g>
        </g>
    </g>
</svg>